<svg xmlns="http://www.w3.org/2000/svg" viewBox="0 0 720 320">
  <rect width="720" height="320" fill="#f8fafc"/>
  <text x="360" y="26" text-anchor="middle" font-family="system-ui,sans-serif" font-size="14" font-weight="600" fill="#0f172a">RAG: ingest, index, retrieve, then generate</text>
  <rect x="32" y="48" width="100" height="56" rx="6" fill="#fff" stroke="#94a3b8"/>
  <text x="82" y="76" text-anchor="middle" font-family="system-ui,sans-serif" font-size="10" fill="#334155">Docs</text>
  <text x="82" y="92" text-anchor="middle" font-family="system-ui,sans-serif" font-size="9" fill="#64748b">PDF / MD</text>
  <path d="M132 76 L158 76" stroke="#2563eb" stroke-width="2"/>
  <polygon points="166,76 158,72 158,80" fill="#2563eb"/>
  <rect x="168" y="48" width="88" height="56" rx="6" fill="#eff6ff" stroke="#3b82f6"/>
  <text x="212" y="74" text-anchor="middle" font-family="system-ui,sans-serif" font-size="10" fill="#1e40af">Chunk</text>
  <text x="212" y="90" text-anchor="middle" font-family="system-ui,sans-serif" font-size="9" fill="#64748b">overlap</text>
  <path d="M256 76 L282 76" stroke="#2563eb" stroke-width="2"/>
  <polygon points="290,76 282,72 282,80" fill="#2563eb"/>
  <rect x="292" y="48" width="88" height="56" rx="6" fill="#eff6ff" stroke="#3b82f6"/>
  <text x="336" y="74" text-anchor="middle" font-family="system-ui,sans-serif" font-size="10" fill="#1e40af">Embed</text>
  <text x="336" y="90" text-anchor="middle" font-family="system-ui,sans-serif" font-size="9" fill="#64748b">same model</text>
  <path d="M380 76 L406 76" stroke="#2563eb" stroke-width="2"/>
  <polygon points="414,76 406,72 406,80" fill="#2563eb"/>
  <rect x="416" y="48" width="120" height="56" rx="6" fill="#ecfdf5" stroke="#22c55e"/>
  <text x="476" y="74" text-anchor="middle" font-family="system-ui,sans-serif" font-size="10" fill="#166534">Vector DB</text>
  <text x="476" y="90" text-anchor="middle" font-family="system-ui,sans-serif" font-size="9" fill="#64748b">metadata</text>
  <rect x="560" y="56" width="128" height="40" rx="6" fill="#fef3c7" stroke="#f59e0b"/>
  <text x="624" y="74" text-anchor="middle" font-family="system-ui,sans-serif" font-size="10" fill="#92400e">User query</text>
  <text x="624" y="88" text-anchor="middle" font-family="system-ui,sans-serif" font-size="9" fill="#b45309">embed query</text>
  <path d="M624 96 L624 120 L476 120 L476 104" stroke="#64748b" stroke-width="1.5" fill="none" stroke-dasharray="4 3"/>
  <text x="550" y="116" text-anchor="middle" font-family="system-ui,sans-serif" font-size="9" fill="#64748b">similarity search</text>
  <rect x="200" y="140" width="320" height="48" rx="8" fill="#fff" stroke="#2563eb" stroke-width="1.5"/>
  <text x="360" y="162" text-anchor="middle" font-family="system-ui,sans-serif" font-size="11" fill="#334155">Prompt = instructions + Top-K chunks + question</text>
  <text x="360" y="178" text-anchor="middle" font-family="system-ui,sans-serif" font-size="9" fill="#64748b">cite sources; say unknown if missing</text>
  <path d="M360 188 L360 206" stroke="#64748b" stroke-width="2"/>
  <polygon points="360,214 355,206 365,206" fill="#64748b"/>
  <rect x="260" y="218" width="200" height="44" rx="8" fill="#1e293b" stroke="#334155"/>
  <text x="360" y="238" text-anchor="middle" font-family="system-ui,sans-serif" font-size="11" fill="#f8fafc">LLM answer</text>
  <text x="360" y="254" text-anchor="middle" font-family="system-ui,sans-serif" font-size="9" fill="#94a3b8">optional citations</text>
</svg>
